<?xml version="1.0" encoding="utf-8"?><svg xmlns="http://www.w3.org/2000/svg" xmlns:xlink="http://www.w3.org/1999/xlink"><symbol viewBox="0 0 135 40" id="App-Store-Badge" xmlns="http://www.w3.org/2000/svg"><g clip-path="url(#aa)"><path d="M124.249 0H10.757c-.414 0-.823 0-1.235.002-.346.002-.688.008-1.037.013-.758.008-1.513.067-2.26.176A8.208 8.208 0 0 0 4.08.818a7.294 7.294 0 0 0-1.826 1.18 6.352 6.352 0 0 0-1.33 1.62A6.093 6.093 0 0 0 .22 5.521a11.559 11.559 0 0 0-.202 2.002c-.01.307-.011.615-.017.921V31.56c.006.31.007.61.017.921.01.671.077 1.34.202 2.002a6.08 6.08 0 0 0 .705 1.905 6.306 6.306 0 0 0 1.33 1.614c.533.477 1.15.875 1.826 1.179a8.248 8.248 0 0 0 2.144.63c.748.11 1.503.168 2.26.177.35.007.692.011 1.038.011.412.002.821.002 1.235.002H124.25c.406 0 .818 0 1.223-.002.344 0 .697-.004 1.04-.01a16.872 16.872 0 0 0 2.257-.178 8.363 8.363 0 0 0 2.152-.63A7.1 7.1 0 0 0 132.746 38a6.5 6.5 0 0 0 1.333-1.614c.341-.6.576-1.242.698-1.905.126-.661.196-1.33.21-2.002.004-.31.004-.61.004-.921.009-.364.009-.725.009-1.094V9.536c0-.366 0-.73-.009-1.092 0-.306 0-.614-.004-.92a12.043 12.043 0 0 0-.21-2.003 6.096 6.096 0 0 0-.698-1.903c-.696-1.203-1.801-2.182-3.158-2.8a8.324 8.324 0 0 0-2.152-.627c-.746-.11-1.5-.169-2.257-.176-.343-.005-.696-.011-1.04-.013C125.067 0 124.655 0 124.249 0Z"/><path d="M9.43 39.128c-.344 0-.68-.004-1.022-.01a16.17 16.17 0 0 1-2.112-.164 7.263 7.263 0 0 1-1.873-.548 6.135 6.135 0 0 1-1.578-1.017 5.408 5.408 0 0 1-1.154-1.397 5.276 5.276 0 0 1-.613-1.657A11.03 11.03 0 0 1 .89 32.46a66.312 66.312 0 0 1-.017-.914V8.441s.01-.692.017-.895a10.99 10.99 0 0 1 .187-1.872c.108-.579.315-1.14.614-1.663.295-.518.682-.99 1.147-1.398.465-.412 1-.757 1.585-1.023a7.193 7.193 0 0 1 1.868-.544 16.15 16.15 0 0 1 2.12-.164L9.43.87h116.14l1.032.013c.704.007 1.406.061 2.1.162a7.329 7.329 0 0 1 1.888.548c1.173.535 2.128 1.382 2.73 2.42.294.52.498 1.076.604 1.65.118.624.183 1.255.197 1.888.003.283.003.587.003.89.009.375.009.732.009 1.092v20.933c0 .363 0 .718-.009 1.075 0 .326 0 .624-.004.93a11.331 11.331 0 0 1-.193 1.854 5.302 5.302 0 0 1-.611 1.67c-.298.513-.685.98-1.147 1.387a6.153 6.153 0 0 1-1.582 1.022 7.232 7.232 0 0 1-1.885.55 15.86 15.86 0 0 1-2.112.163c-.331.007-.678.011-1.014.011l-1.226.002-114.92-.002Z"/><path d="M32.797 20.3a4.95 4.95 0 0 1 2.357-4.152 5.066 5.066 0 0 0-3.991-2.157c-1.68-.176-3.308 1.005-4.163 1.005-.872 0-2.19-.988-3.609-.959a5.315 5.315 0 0 0-4.473 2.728c-1.934 3.349-.491 8.27 1.362 10.976.926 1.326 2.01 2.806 3.427 2.754 1.387-.058 1.905-.885 3.58-.885 1.658 0 2.144.885 3.59.851 1.489-.024 2.427-1.33 3.321-2.669a10.962 10.962 0 0 0 1.519-3.092 4.781 4.781 0 0 1-2.92-4.4Zm-2.731-8.09a4.872 4.872 0 0 0 1.114-3.49 4.957 4.957 0 0 0-3.207 1.66 4.635 4.635 0 0 0-1.144 3.361 4.099 4.099 0 0 0 3.237-1.53ZM50.33 27.14h-4.733l-1.136 3.356h-2.005l4.483-12.418h2.083l4.483 12.418h-2.039l-1.135-3.356Zm-4.242-1.55h3.752l-1.85-5.446h-.052l-1.85 5.447Zm17.1.38c0 2.813-1.506 4.62-3.778 4.62a3.07 3.07 0 0 1-2.849-1.583h-.043v4.484H54.66V21.442h1.799v1.506h.034a3.213 3.213 0 0 1 2.883-1.6c2.297 0 3.812 1.816 3.812 4.622Zm-1.91 0c0-1.833-.947-3.038-2.393-3.038-1.42 0-2.375 1.23-2.375 3.038 0 1.824.956 3.046 2.375 3.046 1.446 0 2.393-1.197 2.393-3.046Zm11.875 0c0 2.813-1.506 4.62-3.778 4.62a3.07 3.07 0 0 1-2.849-1.583h-.043v4.484h-1.858V21.442h1.799v1.506h.034a3.213 3.213 0 0 1 2.883-1.6c2.297 0 3.812 1.816 3.812 4.622Zm-1.91 0c0-1.833-.947-3.038-2.393-3.038-1.42 0-2.375 1.23-2.375 3.038 0 1.824.955 3.046 2.375 3.046 1.446 0 2.393-1.197 2.393-3.046Zm8.496 1.066c.138 1.232 1.334 2.04 2.969 2.04 1.566 0 2.693-.808 2.693-1.919 0-.964-.68-1.54-2.289-1.936l-1.61-.388c-2.28-.55-3.338-1.617-3.338-3.348 0-2.142 1.867-3.614 4.518-3.614 2.624 0 4.423 1.472 4.484 3.614H85.29c-.113-1.239-1.137-1.987-2.634-1.987-1.497 0-2.522.757-2.522 1.858 0 .878.655 1.395 2.255 1.79l1.368.336c2.548.603 3.607 1.626 3.607 3.443 0 2.323-1.85 3.778-4.794 3.778-2.754 0-4.613-1.42-4.733-3.667h1.902ZM91.375 19.3v2.142h1.721v1.472h-1.721v4.991c0 .776.344 1.137 1.101 1.137.205-.004.409-.018.612-.043v1.463c-.34.064-.687.092-1.033.086-1.833 0-2.548-.689-2.548-2.444v-5.19h-1.316v-1.472h1.316V19.3h1.868Zm2.718 6.67c0-2.849 1.678-4.639 4.294-4.639 2.625 0 4.295 1.79 4.295 4.639 0 2.856-1.661 4.638-4.295 4.638-2.633 0-4.294-1.782-4.294-4.638Zm6.696 0c0-1.954-.896-3.108-2.402-3.108-1.505 0-2.4 1.162-2.4 3.108 0 1.962.895 3.106 2.4 3.106 1.506 0 2.402-1.144 2.402-3.106Zm3.425-4.528h1.773v1.541h.043a2.162 2.162 0 0 1 2.178-1.635c.214-.001.427.022.636.069v1.738a2.591 2.591 0 0 0-.835-.112 1.872 1.872 0 0 0-1.936 2.083v5.37h-1.859v-9.054Zm13.199 6.395c-.25 1.643-1.851 2.771-3.899 2.771-2.634 0-4.268-1.764-4.268-4.595 0-2.84 1.643-4.682 4.19-4.682 2.505 0 4.08 1.72 4.08 4.466v.637h-6.394v.112a2.353 2.353 0 0 0 1.458 2.391c.31.127.643.186.977.173a2.05 2.05 0 0 0 2.091-1.273h1.765Zm-6.283-2.702h4.527a2.173 2.173 0 0 0-2.221-2.298 2.3 2.3 0 0 0-1.631.668 2.301 2.301 0 0 0-.675 1.63ZM45.855 8.731a2.64 2.64 0 0 1 2.807 2.965c0 1.906-1.03 3.002-2.807 3.002h-2.156V8.73h2.156Zm-1.229 5.123h1.125a1.875 1.875 0 0 0 1.968-2.146 1.882 1.882 0 0 0-1.968-2.134h-1.125v4.28Zm5.084-1.41a2.134 2.134 0 1 1 4.246 0 2.132 2.132 0 1 1-4.247 0Zm3.332 0c0-.976-.438-1.546-1.208-1.546-.772 0-1.207.57-1.207 1.546 0 .984.435 1.55 1.207 1.55.77 0 1.208-.57 1.208-1.55Zm6.56 2.254h-.922l-.93-3.317h-.071l-.927 3.317h-.913l-1.241-4.503h.901l.807 3.436h.066l.926-3.436h.852l.926 3.436h.07l.803-3.436h.889l-1.236 4.503Zm2.28-4.503h.855v.715h.067a1.348 1.348 0 0 1 1.344-.802 1.466 1.466 0 0 1 1.558 1.675v2.915h-.889v-2.692c0-.724-.314-1.084-.971-1.084a1.034 1.034 0 0 0-1.075 1.141v2.635h-.889v-4.503Zm5.24-1.758h.889v6.26h-.889v-6.26Zm2.124 4.007a2.133 2.133 0 1 1 4.248 0 2.134 2.134 0 1 1-4.248 0Zm3.333 0c0-.976-.438-1.546-1.208-1.546-.772 0-1.207.57-1.207 1.546 0 .984.435 1.55 1.207 1.55.77 0 1.208-.57 1.208-1.55Zm1.851.98c0-.81.603-1.277 1.674-1.344l1.22-.07v-.389c0-.476-.315-.744-.922-.744-.496 0-.84.182-.939.5h-.86c.091-.773.819-1.27 1.84-1.27 1.129 0 1.766.563 1.766 1.514v3.077h-.856v-.633h-.07a1.515 1.515 0 0 1-1.353.707 1.36 1.36 0 0 1-1.5-1.348Zm2.894-.384v-.377l-1.1.07c-.62.042-.901.253-.901.65 0 .405.351.64.835.64a1.064 1.064 0 0 0 1.166-.983Zm2.053-.596c0-1.423.731-2.324 1.869-2.324a1.485 1.485 0 0 1 1.38.79h.067V8.437h.889v6.26h-.852v-.71h-.07a1.563 1.563 0 0 1-1.414.785c-1.146 0-1.87-.901-1.87-2.328Zm.918 0c0 .955.45 1.53 1.203 1.53.749 0 1.212-.583 1.212-1.526 0-.938-.468-1.53-1.212-1.53-.748 0-1.203.58-1.203 1.526Zm6.963 0a2.132 2.132 0 0 1 4.148-.876c.094.282.128.58.1.876a2.132 2.132 0 1 1-4.248 0Zm3.334 0c0-.976-.439-1.546-1.209-1.546-.772 0-1.206.57-1.206 1.546 0 .984.434 1.55 1.206 1.55.77 0 1.209-.57 1.209-1.55Zm2.106-2.249h.855v.715h.067a1.348 1.348 0 0 1 1.343-.802 1.466 1.466 0 0 1 1.56 1.675v2.915h-.89v-2.692c0-.724-.314-1.084-.971-1.084a1.034 1.034 0 0 0-1.076 1.141v2.635h-.888v-4.503Zm8.846-1.121v1.141h.975v.749h-.975v2.315c0 .472.194.678.636.678.114 0 .227-.007.339-.02v.74a2.893 2.893 0 0 1-.483.046c-.989 0-1.382-.348-1.382-1.216v-2.543h-.715v-.749h.715V9.074h.89Zm2.189-.637h.881v2.482h.07a1.388 1.388 0 0 1 1.373-.807 1.484 1.484 0 0 1 1.551 1.678v2.908h-.89V12.01c0-.72-.335-1.084-.962-1.084a1.054 1.054 0 0 0-1.134 1.142v2.63h-.889V8.437Zm9.057 5.045a1.833 1.833 0 0 1-1.951 1.303 2.044 2.044 0 0 1-2.081-2.325 2.077 2.077 0 0 1 2.077-2.352c1.253 0 2.008.856 2.008 2.27v.31h-3.179v.05a1.19 1.19 0 0 0 1.199 1.29 1.08 1.08 0 0 0 1.071-.546h.856Zm-3.126-1.451h2.274a1.089 1.089 0 0 0-.666-1.084 1.088 1.088 0 0 0-.442-.083 1.15 1.15 0 0 0-1.166 1.167Z"/></g><defs><clipPath id="aa"><path d="M0 0h135v40H0z"/></clipPath></defs></symbol><symbol viewBox="0 0 135 40" id="Google-Play-Badge" xmlns="http://www.w3.org/2000/svg"><path d="M130 0H5a5 5 0 0 0-5 5v30a5 5 0 0 0 5 5h125a5 5 0 0 0 5-5V5a5 5 0 0 0-5-5Z"/><path d="M130 .8a4.202 4.202 0 0 1 4.2 4.2v30a4.202 4.202 0 0 1-4.2 4.2H5A4.205 4.205 0 0 1 .8 35V5A4.205 4.205 0 0 1 5 .8h125Zm0-.8H5a5.015 5.015 0 0 0-5 5v30a5.015 5.015 0 0 0 5 5h125a5.014 5.014 0 0 0 5-5V5a5.015 5.015 0 0 0-5-5Z"/><path d="M47.418 10.243a2.707 2.707 0 0 1-.745 2.003 2.909 2.909 0 0 1-2.204.888A3.09 3.09 0 0 1 41.352 10a3.092 3.092 0 0 1 3.117-3.134c.423-.001.843.084 1.232.251.36.147.682.376.938.67l-.527.529a2.026 2.026 0 0 0-1.643-.712A2.32 2.32 0 0 0 42.14 10a2.36 2.36 0 0 0 4.006 1.727 1.89 1.89 0 0 0 .503-1.216H44.47v-.72h2.907c.028.149.042.3.042.452Zm4.61-2.506h-2.733V9.64h2.464v.72h-2.464v1.903h2.733V13h-3.503V7h3.503v.737ZM55.279 13h-.772V7.737h-1.676V7h4.123v.737H55.28V13Zm4.659 0V7h.77v6h-.77Zm4.19 0h-.771V7.737H61.68V7h4.123v.737h-1.676V13Zm9.482-.775a3.115 3.115 0 0 1-4.4 0A3.068 3.068 0 0 1 68.326 10a3.068 3.068 0 0 1 .884-2.224 3.105 3.105 0 0 1 4.395.003A3.068 3.068 0 0 1 74.493 10a3.072 3.072 0 0 1-.884 2.225Zm-3.83-.503a2.307 2.307 0 0 0 3.259 0A2.347 2.347 0 0 0 73.706 10a2.349 2.349 0 0 0-.667-1.722 2.307 2.307 0 0 0-3.26 0A2.35 2.35 0 0 0 69.113 10a2.35 2.35 0 0 0 .666 1.722ZM75.575 13V7h.939l2.916 4.668h.033l-.033-1.157v-3.51h.771v6h-.805l-3.05-4.894h-.034l.034 1.156V13h-.77ZM68.136 21.752a4.253 4.253 0 1 0 4.269 4.253 4.192 4.192 0 0 0-4.27-4.253Zm0 6.83a2.584 2.584 0 1 1 2.4-2.577 2.46 2.46 0 0 1-2.4 2.578Zm-9.314-6.83a4.253 4.253 0 1 0 4.27 4.253 4.192 4.192 0 0 0-4.27-4.253Zm0 6.83a2.584 2.584 0 1 1 2.4-2.577 2.46 2.46 0 0 1-2.4 2.578Zm-11.079-5.525v1.804h4.318a3.766 3.766 0 0 1-.983 2.272 4.42 4.42 0 0 1-3.335 1.32 4.801 4.801 0 0 1 0-9.601 4.602 4.602 0 0 1 3.255 1.289l1.273-1.273a6.293 6.293 0 0 0-4.528-1.82 6.607 6.607 0 1 0 0 13.21 6.039 6.039 0 0 0 4.608-1.853 5.961 5.961 0 0 0 1.563-4.22 5.858 5.858 0 0 0-.097-1.128h-6.074Zm45.309 1.401a3.953 3.953 0 0 0-3.641-2.706 4.043 4.043 0 0 0-4.012 4.253 4.162 4.162 0 0 0 4.221 4.253 4.23 4.23 0 0 0 3.544-1.885l-1.45-.966a2.43 2.43 0 0 1-2.094 1.175 2.164 2.164 0 0 1-2.062-1.288l5.687-2.352-.193-.484Zm-5.8 1.418a2.333 2.333 0 0 1 2.223-2.481 1.648 1.648 0 0 1 1.58.902l-3.803 1.579ZM82.628 30h1.87V17.5h-1.87V30Zm-3.06-7.298h-.065a2.947 2.947 0 0 0-2.24-.95 4.257 4.257 0 0 0 0 8.506 2.9 2.9 0 0 0 2.24-.967h.064v.613c0 1.627-.87 2.497-2.271 2.497a2.353 2.353 0 0 1-2.143-1.515l-1.627.677a4.053 4.053 0 0 0 3.77 2.513c2.19 0 4.043-1.289 4.043-4.43v-7.637h-1.772v.693Zm-2.143 5.88a2.587 2.587 0 0 1 0-5.155 2.397 2.397 0 0 1 2.271 2.594 2.375 2.375 0 0 1-2.271 2.561ZM101.806 17.5h-4.471V30H99.2v-4.736h2.606a3.886 3.886 0 0 0 3.784-5.42 3.886 3.886 0 0 0-3.784-2.345Zm.048 6.025H99.2V19.24h2.654a2.149 2.149 0 0 1 1.544.611 2.132 2.132 0 0 1 .643 1.531 2.133 2.133 0 0 1-.643 1.531 2.146 2.146 0 0 1-1.544.612Zm11.532-1.795a3.507 3.507 0 0 0-3.33 1.914l1.657.691a1.766 1.766 0 0 1 1.705-.917 1.796 1.796 0 0 1 1.962 1.609v.128a4.13 4.13 0 0 0-1.946-.482c-1.785 0-3.603.981-3.603 2.814a2.893 2.893 0 0 0 1.964 2.608 2.89 2.89 0 0 0 1.14.143 2.63 2.63 0 0 0 2.381-1.223h.064v.965h1.801v-4.792c0-2.22-1.656-3.458-3.795-3.458Zm-.226 6.851c-.611 0-1.463-.305-1.463-1.061 0-.965 1.061-1.335 1.978-1.335a3.325 3.325 0 0 1 1.705.418 2.264 2.264 0 0 1-2.22 1.978Zm10.583-6.578-2.139 5.42h-.064l-2.22-5.42h-2.01l3.329 7.575-1.898 4.214h1.946l5.131-11.789h-2.075ZM106.936 30h1.866V17.5h-1.866V30ZM10.435 7.538a2.003 2.003 0 0 0-.462 1.405v22.116a2 2 0 0 0 .462 1.405l.074.072L22.9 20.147v-.292L10.51 7.465l-.074.073Z"/><path d="m27.028 24.279-4.13-4.132v-.292l4.13-4.13.094.053 4.893 2.78c1.397.794 1.397 2.093 0 2.887l-4.893 2.78-.094.054Z"/><path d="m27.122 24.225-4.224-4.224-12.463 12.463a1.626 1.626 0 0 0 2.078.061l14.609-8.3ZM27.122 15.777l-14.609-8.3a1.627 1.627 0 0 0-2.078.061l12.463 12.463 4.224-4.224Z"/><path opacity=".2" d="m27.029 24.132-14.516 8.247a1.666 1.666 0 0 1-2.003.011l-.075.075.074.072a1.666 1.666 0 0 0 2.004-.012l14.609-8.3-.093-.093Z"/><path opacity=".12" d="M10.435 32.318a2.003 2.003 0 0 1-.463-1.404v.146c-.03.51.135 1.012.463 1.405l.075-.075-.075-.072Zm21.58-11.019-4.986 2.833.093.093 4.893-2.78A1.754 1.754 0 0 0 33.063 20a1.862 1.862 0 0 1-1.048 1.298Z"/><path opacity=".25" d="m12.513 7.623 19.502 11.08a1.862 1.862 0 0 1 1.048 1.298 1.754 1.754 0 0 0-1.048-1.444L12.513 7.477c-1.397-.794-2.54-.134-2.54 1.467v.146c0-1.601 1.143-2.26 2.54-1.467Z"/></symbol><symbol viewBox="0 0 25 20" id="cavichki" xmlns="http://www.w3.org/2000/svg"><path d="M23.686.72v1.387c-1.963.718-3.502 1.85-4.616 3.399-1.114 1.53-1.67 3.125-1.67 4.786 0 .359.056.623.17.793.075.113.16.17.254.17.095 0 .236-.066.425-.198.604-.435 1.369-.652 2.294-.652 1.076 0 2.03.444 2.86 1.331.831.869 1.246 1.907 1.246 3.116 0 1.264-.481 2.378-1.444 3.341-.944.963-2.096 1.445-3.455 1.445-1.586 0-2.955-.652-4.106-1.954-1.152-1.303-1.728-3.05-1.728-5.24 0-2.548.784-4.833 2.35-6.853 1.568-2.02 4.041-3.644 7.42-4.871Zm-13.621 0v1.387c-1.964.718-3.503 1.85-4.617 3.399-1.114 1.53-1.67 3.125-1.67 4.786 0 .359.056.623.17.793.075.113.16.17.254.17.095 0 .236-.066.425-.198.604-.435 1.369-.652 2.294-.652 1.076 0 2.03.444 2.86 1.331.831.869 1.246 1.907 1.246 3.116 0 1.264-.481 2.378-1.444 3.341-.944.963-2.096 1.445-3.455 1.445-1.586 0-2.955-.652-4.107-1.954C.87 16.38.294 14.634.294 12.444c0-2.548.783-4.833 2.35-6.853 1.568-2.02 4.04-3.644 7.42-4.871Z"/></symbol><symbol viewBox="0 0 1440 35" id="header-slider-decor" xmlns="http://www.w3.org/2000/svg"><path d="M0 14.011s412.629-26.769 720 0C1027.37 40.781 1440 .56 1440 .56v34H0"/></symbol><symbol viewBox="0 0 20 20" id="icon-call" xmlns="http://www.w3.org/2000/svg"><path fill-rule="evenodd" clip-rule="evenodd" d="M12.356.008a.817.817 0 0 0-.626.176.853.853 0 0 0-.322.584.86.86 0 0 0 .757.95 6.912 6.912 0 0 1 6.125 6.139.857.857 0 1 0 1.704-.192C19.54 3.607 16.4.459 12.356.008Zm.062 3.482a.854.854 0 0 0-1.004.68.862.862 0 0 0 .677 1.01 3.462 3.462 0 0 1 2.744 2.75.86.86 0 0 0 1.006.681.865.865 0 0 0 .677-1.01 5.174 5.174 0 0 0-4.1-4.111ZM14 13.09c.451-.26.961-.554 1.605-.417.582.123 2.568 1.735 3.112 2.293.356.366.555.744.585 1.122.054 1.482-1.96 3.174-2.326 3.384a2.825 2.825 0 0 1-1.69.528c-.65 0-1.375-.185-2.166-.554C8.83 17.656 2.276 11.231.543 6.974-.177 5.389-.181 4.082.53 3.1.815 2.639 2.433.713 3.88.774c.386.033.76.231 1.128.59.556.545 2.128 2.537 2.249 3.122.134.65-.16 1.166-.422 1.62a7.681 7.681 0 0 1-.214.34c-.313.48-.73 1.121-.582 1.53 1.057 2.594 3.498 4.858 6.093 5.921.401.146 1.042-.274 1.521-.588a7.89 7.89 0 0 1 .335-.212L14 13.09Z"/></symbol><symbol viewBox="0 0 15 30" id="icon-facebook" xmlns="http://www.w3.org/2000/svg"><mask id="fa" maskUnits="userSpaceOnUse" x="0" y="0" width="15" height="30"><path fill-rule="evenodd" clip-rule="evenodd" d="M7.479 29.945h7.479V0H0v29.945h7.48Z"/></mask><g mask="url(#fa)"><path fill-rule="evenodd" clip-rule="evenodd" d="M9.709 29.945v-13.66h4.41l.66-5.323H9.71V7.564c0-1.542.412-2.592 2.537-2.592l2.712-.001V.21C14.488.145 12.879 0 11.007 0 7.097 0 4.42 2.48 4.42 7.037v3.925H.001v5.324h4.42v13.659H9.71Z"/></g></symbol><symbol viewBox="0 0 30 30" id="icon-instagram" xmlns="http://www.w3.org/2000/svg"><mask id="ga" maskUnits="userSpaceOnUse" x="0" y="0" width="30" height="30"><path fill-rule="evenodd" clip-rule="evenodd" d="M15 0h15v30H0V0h15Z"/></mask><g mask="url(#ga)"><path fill-rule="evenodd" clip-rule="evenodd" d="M27.318 14.998h-.046c0-1.25.024-2.5-.007-3.748-.03-1.178-.074-2.359-.194-3.53-.114-1.12-.51-2.153-1.265-3.024-1.059-1.218-2.455-1.731-4.001-1.826-1.76-.107-3.526-.134-5.29-.155a163.372 163.372 0 0 0-5.265.02 43.344 43.344 0 0 0-3.53.194c-1.12.114-2.153.51-3.024 1.265C3.478 5.252 2.965 6.65 2.87 8.195c-.107 1.76-.134 3.526-.155 5.29-.022 1.754-.014 3.51.02 5.265.024 1.178.074 2.359.194 3.53.114 1.12.509 2.153 1.265 3.024 1.058 1.218 2.455 1.732 4.001 1.826 1.76.107 3.526.134 5.29.155a139.2 139.2 0 0 0 5.265-.023c1.296-.033 2.604-.058 3.88-.258 2.18-.343 3.655-1.607 4.242-3.77.19-.702.29-1.443.317-2.17.075-2.02.09-4.044.129-6.066ZM0 19.941V10.06c.017-.094.045-.187.048-.281.034-1.16.087-2.317.37-3.45.642-2.554 2.123-4.412 4.56-5.466C6.297.292 7.701.126 9.124.068c.312-.013.623-.045.934-.068h9.882c.093.017.186.045.28.048 1.16.034 2.317.087 3.45.37 2.554.642 4.412 2.123 5.466 4.56.571 1.32.737 2.724.795 4.147.013.312.045.623.068.934v9.882c-.017.093-.045.186-.048.28-.034 1.16-.087 2.317-.37 3.45-.642 2.554-2.123 4.412-4.56 5.466-1.32.571-2.724.737-4.147.795-.312.013-.623.045-.934.068h-9.88c-.094-.017-.187-.045-.282-.048-1.159-.034-2.316-.087-3.448-.37-2.555-.642-4.413-2.123-5.467-4.56-.571-1.32-.737-2.724-.795-4.147-.013-.312-.045-.623-.068-.934Z"/></g><path fill-rule="evenodd" clip-rule="evenodd" d="M14.996 19.99c2.73 0 4.991-2.234 4.994-4.934.003-2.78-2.213-5.044-4.941-5.046-2.792-.002-5.039 2.218-5.04 4.978 0 2.76 2.235 5.002 4.987 5.002Zm7.713-4.983a7.704 7.704 0 0 1-7.73 7.702c-4.25-.006-7.69-3.46-7.688-7.716a7.703 7.703 0 0 1 7.73-7.702c4.25.007 7.69 3.458 7.688 7.716Zm.281-9.819a1.803 1.803 0 0 1 1.822 1.801 1.812 1.812 0 0 1-1.809 1.818 1.822 1.822 0 0 1-1.81-1.82 1.814 1.814 0 0 1 1.798-1.799Z"/></symbol><symbol viewBox="0 0 18 20" id="icon-location" xmlns="http://www.w3.org/2000/svg"><path fill-rule="evenodd" clip-rule="evenodd" d="M.5 8.318C.5 3.718 4.344 0 8.993 0 13.656 0 17.5 3.718 17.5 8.318c0 2.318-.843 4.47-2.23 6.294a22.064 22.064 0 0 1-5.541 5.14c-.486.318-.925.342-1.459 0a21.64 21.64 0 0 1-5.54-5.14C1.343 12.788.5 10.636.5 8.318Zm5.694.259c0 1.54 1.258 2.753 2.8 2.753 1.542 0 2.812-1.212 2.812-2.753 0-1.53-1.27-2.8-2.813-2.8a2.813 2.813 0 0 0-2.799 2.8Z"/></symbol><symbol viewBox="0 0 20 18" id="icon-message" xmlns="http://www.w3.org/2000/svg"><path fill-rule="evenodd" clip-rule="evenodd" d="M14.94 0A5.057 5.057 0 0 1 20 5.05v7.9c0 2.79-2.27 5.05-5.06 5.05H5.06A5.057 5.057 0 0 1 0 12.95v-7.9A5.05 5.05 0 0 1 5.06 0h9.88Zm1.59 6.54.08-.08a.773.773 0 0 0-.01-1 .84.84 0 0 0-.53-.26.76.76 0 0 0-.56.2L11 9a1.566 1.566 0 0 1-2 0L4.5 5.4a.76.76 0 0 0-1 .07c-.27.27-.3.7-.07 1l.13.13 4.55 3.55a3.143 3.143 0 0 0 3.91 0l4.51-3.61Z"/></symbol><symbol viewBox="0 0 21 20" id="icon-search" xmlns="http://www.w3.org/2000/svg"><rect y="17.127" width="8.82" height="3" rx="1.5" transform="rotate(-44 0 17.127)"/><circle cx="12.259" cy="7.862" r="6.362"/></symbol><symbol viewBox="0 0 25 30" id="icon-youtube" xmlns="http://www.w3.org/2000/svg"><path fill-rule="evenodd" clip-rule="evenodd" d="M20.19 11.394h-1.58v-.922c-.598.692-1.106 1.041-1.66 1.041-.485 0-.822-.23-.991-.647-.103-.254-.176-.65-.176-1.231V2.932h1.58v6.87c.037.235.136.321.337.321.302 0 .576-.265.91-.74v-6.45h1.58v8.46ZM13.04 8.88c.082.838-.176 1.254-.666 1.254-.49 0-.748-.416-.665-1.254V5.53c-.083-.839.174-1.231.665-1.231.49 0 .75.392.666 1.23V8.88Zm1.579-3.183c0-.904-.18-1.583-.499-2.01-.42-.58-1.08-.817-1.746-.817-.753 0-1.326.237-1.746.816-.324.428-.498 1.114-.498 2.018l-.001 3.009c0 .899.154 1.52.478 1.944.42.577 1.102.882 1.767.882.665 0 1.358-.305 1.78-.882.318-.424.465-1.045.465-1.944V5.697Z"/><mask id="ka" maskUnits="userSpaceOnUse" x="4" y="0" width="7" height="12"><path fill-rule="evenodd" clip-rule="evenodd" d="M10.461.084h-5.82v11.31h5.82V.084Z"/></mask><g mask="url(#ka)"><path fill-rule="evenodd" clip-rule="evenodd" d="M8.382 6.786v4.608H6.72V6.786S4.996 1.136 4.64.084h1.747l1.167 4.413L8.715.084h1.746L8.382 6.786Z"/></g><path fill-rule="evenodd" clip-rule="evenodd" d="M14.969 19.542c-.248 0-.532.132-.784.382l-.002 5.081c.252.254.538.382.786.382.434 0 .63-.32.63-1.159v-3.602c0-.838-.196-1.084-.63-1.084Zm6.201 1.008c0-.775-.199-1.008-.698-1.008-.503 0-.716.214-.716.997v.926l1.414-.001v-.915Z"/><mask id="kb" maskUnits="userSpaceOnUse" x="0" y="12" width="25" height="18"><path fill-rule="evenodd" clip-rule="evenodd" d="M0 30h24.83V12.482H0v17.516Z"/></mask><g mask="url(#kb)"><path fill-rule="evenodd" clip-rule="evenodd" d="M20.486 25.387c.371 0 .587-.203.673-.608.014-.083.011-.445.011-1.053h1.58v.237c0 .489-.04.835-.053.987-.051.336-.17.64-.352.909-.417.607-1.035.907-1.821.907-.788 0-1.387-.285-1.823-.857-.32-.42-.524-1.042-.524-1.932v-2.932c0-.895.186-1.587.506-2.01.435-.573 1.035-.876 1.803-.876.756 0 1.355.303 1.777.876.315.424.49 1.078.49 1.973v1.713h-2.997v1.504c-.005.773.214 1.162.73 1.162Zm-3.307-1.242c0 .774-.066 1.32-.167 1.675-.2.623-.639.946-1.238.946-.535 0-1.084-.324-1.587-.951l-.002.843h-1.497V15.432h1.497l-.002 3.66c.487-.603 1.037-.946 1.591-.946.6 0 1.002.349 1.203.976.1.337.202.879.202 1.672v3.35Zm-5.738 2.513h-1.58v-.922c-.599.692-1.107 1.041-1.66 1.041-.486 0-.823-.23-.992-.647-.102-.254-.175-.65-.175-1.231V18.28h1.58v6.786c.037.235.136.321.337.321.302 0 .576-.264.91-.74V18.28h1.58v8.378Zm-5.987 0H3.79v-9.635H2.044v-1.59l5.24-.001v1.591h-1.83v9.635Zm19.129-10.396s-.243-1.716-.987-2.472c-.944-.992-2.003-.997-2.488-1.055-3.475-.252-8.687-.252-8.687-.252h-.01s-5.213 0-8.688.252c-.485.058-1.543.063-2.488 1.055-.744.756-.987 2.472-.987 2.472S0 18.277 0 20.292v1.89c0 2.015.248 4.03.248 4.03s.243 1.717.987 2.472c.945.992 2.186.961 2.738 1.065 1.987.191 8.442.25 8.442.25s5.218-.008 8.693-.26c.485-.058 1.544-.063 2.488-1.055.744-.755.987-2.472.987-2.472s.248-2.015.248-4.03v-1.89c0-2.015-.248-4.03-.248-4.03Z"/></g></symbol><symbol viewBox="0 0 185 44" id="logo" xmlns="http://www.w3.org/2000/svg"><path d="M14.857 4.52c-8.64 0-14.28 5.92-14.28 14.32 0 8.44 5.68 14.36 14.32 14.36 7.36 0 11.72-4.56 13.4-8.68v-7.6h-14.64v5.64h7.88c-1.16 2.44-3.16 3.72-5.88 3.72-4.64 0-7.12-2.6-7.12-7.44 0-4.32 2.4-7.08 6.36-7.08 2.16 0 3.76.84 4.64 2.32h8.44c-1.12-5.88-6-9.56-13.12-9.56ZM54.05 21.76c0-7.12-5.08-11.48-11.76-11.48s-11.76 4.36-11.76 11.48c0 7.16 5.04 11.52 11.72 11.52 6.68 0 11.8-4.36 11.8-11.52Zm-15.52 0c0-3.2 1.76-4.68 3.76-4.68 2 0 3.8 1.48 3.8 4.68 0 3.24-1.84 4.72-3.84 4.72-2.04 0-3.72-1.48-3.72-4.72Zm40.95 0c0-7.12-5.08-11.48-11.76-11.48s-11.76 4.36-11.76 11.48c0 7.16 5.04 11.52 11.72 11.52 6.68 0 11.8-4.36 11.8-11.52Zm-15.52 0c0-3.2 1.76-4.68 3.76-4.68 2 0 3.8 1.48 3.8 4.68 0 3.24-1.84 4.72-3.84 4.72-2.04 0-3.72-1.48-3.72-4.72Zm17.43 0c0 7.16 4.24 11.52 9.56 11.52 3.16 0 5.4-1.4 6.56-3.4V33h7.88V3.4h-7.88v10.24c-1.24-2.04-3.56-3.36-6.52-3.36-5.36 0-9.6 4.32-9.6 11.48Zm16.16 0c0 3.04-1.88 4.68-4.08 4.68-2.24 0-4.08-1.68-4.08-4.68 0-3.04 1.84-4.64 4.08-4.64 2.2 0 4.08 1.64 4.08 4.64ZM109.857 33h7.84V3.4h-7.84V33Zm23.305-9.72-4.72-12.72h-8.72l9.2 21.48-5.36 11.64h8.52l14.24-33.12h-8.6l-4.56 12.72ZM149.093 33h7.88V17.08h3.52v-6.52h-3.52c.12-2 1.08-2.64 3.44-2.4V1.48c-7.28-.52-11.32 2.68-11.32 8.88v.2h-2.44v6.52h2.44V33Zm24.282-16.52c1.8 0 3.36 1.08 3.36 3.08h-6.92c.36-2.04 1.68-3.08 3.56-3.08Zm10.88 8.76h-8.36c-.44.92-1.28 1.76-2.8 1.76-1.76 0-3.16-1.04-3.32-3.64h14.84c.08-.6.12-1.24.12-1.84 0-6.96-4.68-11.24-11.32-11.24-6.72 0-11.4 4.36-11.4 11.48 0 7.16 4.76 11.52 11.4 11.52 5.6 0 9.8-3.44 10.84-8.04Z"/></symbol><symbol viewBox="0 0 119 28" id="logo-footer" xmlns="http://www.w3.org/2000/svg"><path d="M9.176 2.724c-5.545 0-9.164 3.799-9.164 9.19 0 5.415 3.645 9.214 9.19 9.214 4.722 0 7.52-2.926 8.598-5.57v-4.877H8.405v3.62h5.057c-.744 1.565-2.028 2.387-3.773 2.387-2.978 0-4.57-1.669-4.57-4.775 0-2.772 1.541-4.543 4.082-4.543 1.386 0 2.413.54 2.978 1.489h5.416c-.719-3.773-3.85-6.135-8.42-6.135Zm25.15 11.063c0-4.569-3.26-7.367-7.546-7.367-4.287 0-7.547 2.798-7.547 7.367 0 4.595 3.235 7.393 7.521 7.393 4.287 0 7.572-2.798 7.572-7.393Zm-9.959 0c0-2.053 1.13-3.003 2.413-3.003s2.438.95 2.438 3.003c0 2.08-1.18 3.029-2.464 3.029-1.309 0-2.387-.95-2.387-3.029Zm26.278 0c0-4.569-3.26-7.367-7.547-7.367-4.286 0-7.546 2.798-7.546 7.367 0 4.595 3.234 7.393 7.52 7.393 4.287 0 7.573-2.798 7.573-7.393Zm-9.96 0c0-2.053 1.13-3.003 2.413-3.003 1.284 0 2.439.95 2.439 3.003 0 2.08-1.18 3.029-2.464 3.029-1.31 0-2.387-.95-2.387-3.029Zm11.185 0c0 4.595 2.721 7.393 6.135 7.393 2.028 0 3.465-.899 4.21-2.182V21h5.056V2.005h-5.056v6.571C61.419 7.267 59.93 6.42 58.03 6.42c-3.44 0-6.16 2.773-6.16 7.367Zm10.37 0c0 1.951-1.206 3.003-2.618 3.003-1.437 0-2.618-1.078-2.618-3.003 0-1.95 1.18-2.977 2.618-2.977 1.412 0 2.618 1.052 2.618 2.977ZM70.138 21h5.031V2.005h-5.03V21Zm14.955-6.237L82.064 6.6H76.47l5.903 13.784-3.44 7.47H84.4L93.538 6.6H88.02l-2.926 8.163ZM95.316 21h5.057V10.784h2.259V6.6h-2.259c.077-1.283.693-1.694 2.207-1.54V.773c-4.671-.333-7.264 1.72-7.264 5.699V6.6H93.75v4.184h1.566V21Zm15.582-10.601c1.155 0 2.156.693 2.156 1.976h-4.44c.231-1.309 1.078-1.976 2.284-1.976Zm6.982 5.621h-5.365c-.282.59-.821 1.13-1.796 1.13-1.13 0-2.028-.668-2.131-2.336h9.523a9.18 9.18 0 0 0 .077-1.18c0-4.467-3.003-7.214-7.264-7.214-4.312 0-7.316 2.798-7.316 7.367 0 4.595 3.055 7.393 7.316 7.393 3.593 0 6.289-2.208 6.956-5.16Z"/></symbol><symbol viewBox="0 0 24 25" id="min-icon-insta" xmlns="http://www.w3.org/2000/svg"><path opacity=".1" fill-rule="evenodd" clip-rule="evenodd" d="M0 12.235c0-6.627 5.373-12 12-12s12 5.373 12 12c0 6.628-5.373 12-12 12s-12-5.372-12-12Z"/><path fill-rule="evenodd" clip-rule="evenodd" d="M12 5.835c-1.738 0-1.956.008-2.638.04-.682.03-1.147.138-1.554.296-.42.164-.778.383-1.133.738a3.142 3.142 0 0 0-.74 1.134c-.158.407-.266.872-.296 1.553-.031.683-.039.901-.039 2.64 0 1.738.008 1.955.039 2.638.031.681.139 1.146.297 1.553.164.421.382.778.738 1.134a3.15 3.15 0 0 0 1.133.739c.408.158.873.266 1.554.297.683.031.9.039 2.639.039 1.738 0 1.956-.008 2.638-.04.681-.03 1.147-.138 1.554-.296a3.123 3.123 0 0 0 1.133-.74c.356-.355.575-.712.739-1.133.157-.407.265-.872.297-1.553.031-.683.039-.9.039-2.639 0-1.738-.008-1.956-.039-2.638-.032-.682-.14-1.147-.297-1.554a3.141 3.141 0 0 0-.739-1.134 3.128 3.128 0 0 0-1.133-.738c-.408-.158-.873-.266-1.555-.297-.682-.03-.9-.039-2.638-.039H12Zm-.574 1.154h.575c1.708 0 1.91.006 2.586.037.624.028.962.132 1.188.22.299.116.512.255.736.479.224.224.362.437.478.736.088.225.192.564.22 1.188.032.674.038.877.038 2.585s-.006 1.91-.037 2.585c-.029.624-.133.963-.22 1.188a1.979 1.979 0 0 1-.48.736 1.98 1.98 0 0 1-.735.478c-.225.088-.564.192-1.188.22-.675.032-.878.038-2.586.038-1.71 0-1.912-.006-2.587-.037-.624-.029-.962-.133-1.188-.22a1.982 1.982 0 0 1-.736-.48 1.984 1.984 0 0 1-.479-.735c-.088-.226-.192-.564-.22-1.188-.031-.675-.037-.878-.037-2.587s.006-1.91.037-2.585c.028-.624.132-.963.22-1.188a1.98 1.98 0 0 1 .479-.736c.224-.224.437-.363.736-.48.226-.087.564-.191 1.188-.22.59-.026.82-.034 2.012-.036v.002Zm3.99 1.062a.768.768 0 1 0 0 1.536.768.768 0 0 0 0-1.536Zm-3.415.898a3.287 3.287 0 1 0 0 6.573 3.287 3.287 0 0 0 0-6.573Zm0 1.153a2.133 2.133 0 1 1 0 4.267 2.133 2.133 0 0 1 0-4.267Z"/></symbol><symbol viewBox="0 0 24 25" id="min-icon-twitter" xmlns="http://www.w3.org/2000/svg"><g fill-rule="evenodd" clip-rule="evenodd"><path opacity=".1" d="M0 12.235c0-6.627 5.373-12 12-12s12 5.373 12 12c0 6.628-5.373 12-12 12s-12-5.372-12-12Z"/><path d="m11.64 9.99.026.414-.42-.05c-1.528-.195-2.862-.856-3.995-1.967l-.554-.55-.143.406c-.302.907-.11 1.865.52 2.509.336.356.26.406-.319.195-.201-.068-.377-.119-.394-.094-.059.06.143.83.302 1.136.218.424.663.839 1.15 1.085l.411.194-.486.009c-.47 0-.487.008-.437.186.168.551.831 1.136 1.57 1.39l.52.178-.453.271c-.672.39-1.46.61-2.25.627-.377.009-.688.043-.688.068 0 .085 1.024.56 1.62.746 1.788.55 3.911.313 5.506-.627 1.133-.67 2.267-2 2.795-3.288.286-.686.571-1.94.571-2.542 0-.39.025-.441.495-.907.277-.271.538-.568.588-.653.084-.16.076-.16-.353-.017-.713.255-.814.22-.461-.16.26-.272.57-.763.57-.907 0-.026-.125.017-.268.093a4.685 4.685 0 0 1-.739.288l-.453.144-.411-.28c-.227-.152-.546-.322-.714-.372-.428-.119-1.082-.102-1.469.034-1.049.38-1.712 1.364-1.636 2.44Z"/></g></symbol><symbol viewBox="0 0 24 25" id="min-icon-web" xmlns="http://www.w3.org/2000/svg"><g fill-rule="evenodd" clip-rule="evenodd"><path opacity=".1" d="M0 12.235c0-6.627 5.373-12 12-12s12 5.373 12 12c0 6.628-5.373 12-12 12s-12-5.372-12-12Z"/><path d="M18.4 12.227a6.405 6.405 0 0 1-.504 2.487 6.449 6.449 0 0 1-2.318 2.811c-.342.23-.708.429-1.087.59a6.425 6.425 0 0 1-6.07-.59 6.452 6.452 0 0 1-2.318-2.811 6.372 6.372 0 0 1 0-4.975 6.381 6.381 0 0 1 1.371-2.032 6.505 6.505 0 0 1 2.034-1.37 6.45 6.45 0 0 1 4.983 0 6.422 6.422 0 0 1 3.778 4.603c.087.42.131.853.131 1.287ZM9.668 7.29a5.466 5.466 0 0 0-3.017 3.811c.144.001 2.422.03 5.046-.666a32.847 32.847 0 0 0-2.03-3.145Zm2.482 3.985c-2.814.842-5.515.781-5.612.777-.001.06-.004.116-.004.175 0 1.402.53 2.68 1.4 3.646-.001-.002 1.494-2.652 4.444-3.605a5.23 5.23 0 0 1 .215-.065 19.12 19.12 0 0 0-.443-.928Zm3.46-3.145A5.443 5.443 0 0 0 12 6.77c-.444 0-.875.053-1.288.152.082.11 1.108 1.47 2.043 3.184 2.062-.772 2.84-1.956 2.854-1.976Zm-2.644 4.977-.036.012c-3.225 1.123-4.278 3.385-4.29 3.41a5.459 5.459 0 0 0 5.493.723 22.689 22.689 0 0 0-1.167-4.145Zm2.088 3.646a5.46 5.46 0 0 0 2.342-3.661 7.94 7.94 0 0 0-3.406-.238 23.593 23.593 0 0 1 1.064 3.899Zm-1.878-5.834a17.159 17.159 0 0 1 .481 1.074c1.878-.236 3.727.161 3.806.177a5.426 5.426 0 0 0-1.242-3.41c-.01.014-.887 1.279-3.045 2.159Z"/></g></symbol><symbol viewBox="0 0 24 25" id="min-icon-youtube" xmlns="http://www.w3.org/2000/svg"><g fill-rule="evenodd" clip-rule="evenodd"><path opacity=".1" d="M0 12.235c0-6.627 5.373-12 12-12s12 5.373 12 12c0 6.628-5.373 12-12 12s-12-5.372-12-12Z"/><path d="M17 8.11c.552.151.985.597 1.133 1.162.267 1.025.267 3.163.267 3.163s0 2.139-.267 3.164A1.625 1.625 0 0 1 17 16.76c-.998.274-5.001.274-5.001.274s-4.003 0-5-.274a1.625 1.625 0 0 1-1.133-1.162C5.6 14.574 5.6 12.435 5.6 12.435s0-2.138.267-3.163A1.629 1.629 0 0 1 6.999 8.11C7.997 7.835 12 7.835 12 7.835s4.003 0 5 .275Zm-6.2 2.525v4l3.2-2-3.2-2Z"/></g></symbol></svg>