<svg width="25" height="20" fill="none" xmlns="http://www.w3.org/2000/svg"><path d="M23.686.72v1.387c-1.963.718-3.502 1.85-4.616 3.399-1.114 1.53-1.67 3.125-1.67 4.786 0 .359.056.623.17.793.075.113.16.17.254.17.095 0 .236-.066.425-.198.604-.435 1.369-.652 2.294-.652 1.076 0 2.03.444 2.86 1.331.831.869 1.246 1.907 1.246 3.116 0 1.264-.481 2.378-1.444 3.341-.944.963-2.096 1.445-3.455 1.445-1.586 0-2.955-.652-4.106-1.954-1.152-1.303-1.728-3.05-1.728-5.24 0-2.548.784-4.833 2.35-6.853 1.568-2.02 4.041-3.644 7.42-4.871zm-13.621 0v1.387c-1.964.718-3.503 1.85-4.617 3.399-1.114 1.53-1.67 3.125-1.67 4.786 0 .359.056.623.17.793.075.113.16.17.254.17.095 0 .236-.066.425-.198.604-.435 1.369-.652 2.294-.652 1.076 0 2.03.444 2.86 1.331.831.869 1.246 1.907 1.246 3.116 0 1.264-.481 2.378-1.444 3.341-.944.963-2.096 1.445-3.455 1.445-1.586 0-2.955-.652-4.107-1.954C.87 16.38.294 14.634.294 12.444c0-2.548.783-4.833 2.35-6.853 1.568-2.02 4.04-3.644 7.42-4.871z" fill="#F8C5D7"/></svg>