<svg width="119" height="28" fill="none" xmlns="http://www.w3.org/2000/svg"><path d="M9.176 2.724c-5.545 0-9.164 3.799-9.164 9.19 0 5.415 3.645 9.214 9.19 9.214 4.722 0 7.52-2.926 8.598-5.57v-4.877H8.405v3.62h5.057c-.744 1.565-2.028 2.387-3.773 2.387-2.978 0-4.57-1.669-4.57-4.775 0-2.772 1.541-4.543 4.082-4.543 1.386 0 2.413.54 2.978 1.489h5.416c-.719-3.773-3.85-6.135-8.42-6.135zm25.15 11.063c0-4.569-3.26-7.367-7.546-7.367-4.287 0-7.547 2.798-7.547 7.367 0 4.595 3.235 7.393 7.521 7.393 4.287 0 7.572-2.798 7.572-7.393zm-9.959 0c0-2.053 1.13-3.003 2.413-3.003s2.438.95 2.438 3.003c0 2.08-1.18 3.029-2.464 3.029-1.309 0-2.387-.95-2.387-3.029zm26.278 0c0-4.569-3.26-7.367-7.547-7.367-4.286 0-7.546 2.798-7.546 7.367 0 4.595 3.234 7.393 7.52 7.393 4.287 0 7.573-2.798 7.573-7.393zm-9.96 0c0-2.053 1.13-3.003 2.413-3.003 1.284 0 2.439.95 2.439 3.003 0 2.08-1.18 3.029-2.464 3.029-1.31 0-2.387-.95-2.387-3.029zm11.185 0c0 4.595 2.721 7.393 6.135 7.393 2.028 0 3.465-.899 4.21-2.182V21h5.056V2.005h-5.056v6.571C61.419 7.267 59.93 6.42 58.03 6.42c-3.44 0-6.16 2.773-6.16 7.367zm10.37 0c0 1.951-1.206 3.003-2.618 3.003-1.437 0-2.618-1.078-2.618-3.003 0-1.95 1.18-2.977 2.618-2.977 1.412 0 2.618 1.052 2.618 2.977z" fill="#fff"/><path d="M70.138 21h5.031V2.005h-5.03V21zm14.955-6.237L82.064 6.6H76.47l5.903 13.784-3.44 7.47H84.4L93.538 6.6H88.02l-2.926 8.163zM95.316 21h5.057V10.784h2.259V6.6h-2.259c.077-1.283.693-1.694 2.207-1.54V.773c-4.671-.333-7.264 1.72-7.264 5.699V6.6H93.75v4.184h1.566V21zm15.582-10.601c1.155 0 2.156.693 2.156 1.976h-4.44c.231-1.309 1.078-1.976 2.284-1.976zm6.982 5.621h-5.365c-.282.59-.821 1.13-1.796 1.13-1.13 0-2.028-.668-2.131-2.336h9.523a9.18 9.18 0 00.077-1.18c0-4.467-3.003-7.214-7.264-7.214-4.312 0-7.316 2.798-7.316 7.367 0 4.595 3.055 7.393 7.316 7.393 3.593 0 6.289-2.208 6.956-5.16z" fill="#E43071"/></svg>