<svg width="185" height="44" fill="none" xmlns="http://www.w3.org/2000/svg"><path d="M14.857 4.52c-8.64 0-14.28 5.92-14.28 14.32 0 8.44 5.68 14.36 14.32 14.36 7.36 0 11.72-4.56 13.4-8.68v-7.6h-14.64v5.64h7.88c-1.16 2.44-3.16 3.72-5.88 3.72-4.64 0-7.12-2.6-7.12-7.44 0-4.32 2.4-7.08 6.36-7.08 2.16 0 3.76.84 4.64 2.32h8.44c-1.12-5.88-6-9.56-13.12-9.56zM54.05 21.76c0-7.12-5.08-11.48-11.76-11.48s-11.76 4.36-11.76 11.48c0 7.16 5.04 11.52 11.72 11.52 6.68 0 11.8-4.36 11.8-11.52zm-15.52 0c0-3.2 1.76-4.68 3.76-4.68 2 0 3.8 1.48 3.8 4.68 0 3.24-1.84 4.72-3.84 4.72-2.04 0-3.72-1.48-3.72-4.72zm40.95 0c0-7.12-5.08-11.48-11.76-11.48s-11.76 4.36-11.76 11.48c0 7.16 5.04 11.52 11.72 11.52 6.68 0 11.8-4.36 11.8-11.52zm-15.52 0c0-3.2 1.76-4.68 3.76-4.68 2 0 3.8 1.48 3.8 4.68 0 3.24-1.84 4.72-3.84 4.72-2.04 0-3.72-1.48-3.72-4.72zm17.43 0c0 7.16 4.24 11.52 9.56 11.52 3.16 0 5.4-1.4 6.56-3.4V33h7.88V3.4h-7.88v10.24c-1.24-2.04-3.56-3.36-6.52-3.36-5.36 0-9.6 4.32-9.6 11.48zm16.16 0c0 3.04-1.88 4.68-4.08 4.68-2.24 0-4.08-1.68-4.08-4.68 0-3.04 1.84-4.64 4.08-4.64 2.2 0 4.08 1.64 4.08 4.64z" fill="#fff"/><path d="M109.857 33h7.84V3.4h-7.84V33zm23.305-9.72l-4.72-12.72h-8.72l9.2 21.48-5.36 11.64h8.52l14.24-33.12h-8.6l-4.56 12.72zM149.093 33h7.88V17.08h3.52v-6.52h-3.52c.12-2 1.08-2.64 3.44-2.4V1.48c-7.28-.52-11.32 2.68-11.32 8.88v.2h-2.44v6.52h2.44V33zm24.282-16.52c1.8 0 3.36 1.08 3.36 3.08h-6.92c.36-2.04 1.68-3.08 3.56-3.08zm10.88 8.76h-8.36c-.44.92-1.28 1.76-2.8 1.76-1.76 0-3.16-1.04-3.32-3.64h14.84c.08-.6.12-1.24.12-1.84 0-6.96-4.68-11.24-11.32-11.24-6.72 0-11.4 4.36-11.4 11.48 0 7.16 4.76 11.52 11.4 11.52 5.6 0 9.8-3.44 10.84-8.04z" fill="#FFC1D8"/></svg>