<svg width="24" height="25" fill="none" xmlns="http://www.w3.org/2000/svg"><path opacity=".1" fill-rule="evenodd" clip-rule="evenodd" d="M0 12.235c0-6.627 5.373-12 12-12s12 5.373 12 12c0 6.628-5.373 12-12 12s-12-5.372-12-12z" fill="#fff"/><path fill-rule="evenodd" clip-rule="evenodd" d="M12 5.835c-1.738 0-1.956.008-2.638.04-.682.03-1.147.138-1.554.296-.42.164-.778.383-1.133.738a3.142 3.142 0 00-.74 1.134c-.158.407-.266.872-.296 1.553-.031.683-.039.901-.039 2.64 0 1.738.008 1.955.039 2.638.031.681.139 1.146.297 1.553.164.421.382.778.738 1.134a3.15 3.15 0 001.133.739c.408.158.873.266 1.554.297.683.031.9.039 2.639.039 1.738 0 1.956-.008 2.638-.04.681-.03 1.147-.138 1.554-.296a3.123 3.123 0 001.133-.74c.356-.355.575-.712.739-1.133.157-.407.265-.872.297-1.553.031-.683.039-.9.039-2.639 0-1.738-.008-1.956-.039-2.638-.032-.682-.14-1.147-.297-1.554a3.141 3.141 0 00-.739-1.134 3.128 3.128 0 00-1.133-.738c-.408-.158-.873-.266-1.555-.297-.682-.03-.9-.039-2.638-.039H12zm-.574 1.154h.575c1.708 0 1.91.006 2.586.037.624.028.962.132 1.188.22.299.116.512.255.736.479.224.224.362.437.478.736.088.225.192.564.22 1.188.032.674.038.877.038 2.585s-.006 1.91-.037 2.585c-.029.624-.133.963-.22 1.188a1.979 1.979 0 01-.48.736 1.98 1.98 0 01-.735.478c-.225.088-.564.192-1.188.22-.675.032-.878.038-2.586.038-1.71 0-1.912-.006-2.587-.037-.624-.029-.962-.133-1.188-.22a1.982 1.982 0 01-.736-.48 1.984 1.984 0 01-.479-.735c-.088-.226-.192-.564-.22-1.188-.031-.675-.037-.878-.037-2.587s.006-1.91.037-2.585c.028-.624.132-.963.22-1.188a1.98 1.98 0 01.479-.736c.224-.224.437-.363.736-.48.226-.087.564-.191 1.188-.22.59-.026.82-.034 2.012-.036v.002zm3.99 1.062a.768.768 0 100 1.536.768.768 0 000-1.536zm-3.415.898a3.287 3.287 0 100 6.573 3.287 3.287 0 000-6.573zm0 1.153a2.133 2.133 0 110 4.267 2.133 2.133 0 010-4.267z" fill="#fff"/></svg>