<svg width="24" height="25" fill="none" xmlns="http://www.w3.org/2000/svg"><g fill-rule="evenodd" clip-rule="evenodd" fill="#fff"><path opacity=".1" d="M0 12.235c0-6.627 5.373-12 12-12s12 5.373 12 12c0 6.628-5.373 12-12 12s-12-5.372-12-12z"/><path d="M17 8.11c.552.151.985.597 1.133 1.162.267 1.025.267 3.163.267 3.163s0 2.139-.267 3.164A1.625 1.625 0 0117 16.76c-.998.274-5.001.274-5.001.274s-4.003 0-5-.274a1.625 1.625 0 01-1.133-1.162C5.6 14.574 5.6 12.435 5.6 12.435s0-2.138.267-3.163A1.629 1.629 0 016.999 8.11C7.997 7.835 12 7.835 12 7.835s4.003 0 5 .275zm-6.2 2.525v4l3.2-2-3.2-2z"/></g></svg>