<svg width="24" height="25" fill="none" xmlns="http://www.w3.org/2000/svg"><g fill-rule="evenodd" clip-rule="evenodd" fill="#fff"><path opacity=".1" d="M0 12.235c0-6.627 5.373-12 12-12s12 5.373 12 12c0 6.628-5.373 12-12 12s-12-5.372-12-12z"/><path d="M11.64 9.99l.026.414-.42-.05c-1.528-.195-2.862-.856-3.995-1.967l-.554-.55-.143.406c-.302.907-.11 1.865.52 2.509.336.356.26.406-.319.195-.201-.068-.377-.119-.394-.094-.059.06.143.83.302 1.136.218.424.663.839 1.15 1.085l.411.194-.486.009c-.47 0-.487.008-.437.186.168.551.831 1.136 1.57 1.39l.52.178-.453.271c-.672.39-1.46.61-2.25.627-.377.009-.688.043-.688.068 0 .085 1.024.56 1.62.746 1.788.55 3.911.313 5.506-.627 1.133-.67 2.267-2 2.795-3.288.286-.686.571-1.94.571-2.542 0-.39.025-.441.495-.907.277-.271.538-.568.588-.653.084-.16.076-.16-.353-.017-.713.255-.814.22-.461-.16.26-.272.57-.763.57-.907 0-.026-.125.017-.268.093a4.685 4.685 0 01-.739.288l-.453.144-.411-.28c-.227-.152-.546-.322-.714-.372-.428-.119-1.082-.102-1.469.034-1.049.38-1.712 1.364-1.636 2.44z"/></g></svg>