<svg width="24" height="25" fill="none" xmlns="http://www.w3.org/2000/svg"><g fill-rule="evenodd" clip-rule="evenodd" fill="#fff"><path opacity=".1" d="M0 12.235c0-6.627 5.373-12 12-12s12 5.373 12 12c0 6.628-5.373 12-12 12s-12-5.372-12-12z"/><path d="M18.4 12.227a6.405 6.405 0 01-.504 2.487 6.449 6.449 0 01-2.318 2.811c-.342.23-.708.429-1.087.59a6.425 6.425 0 01-6.07-.59 6.452 6.452 0 01-2.318-2.811 6.372 6.372 0 010-4.975 6.381 6.381 0 011.371-2.032 6.505 6.505 0 012.034-1.37 6.45 6.45 0 014.983 0 6.422 6.422 0 013.778 4.603c.087.42.131.853.131 1.287zM9.668 7.29a5.466 5.466 0 00-3.017 3.811c.144.001 2.422.03 5.046-.666a32.847 32.847 0 00-2.03-3.145zm2.482 3.985c-2.814.842-5.515.781-5.612.777-.001.06-.004.116-.004.175 0 1.402.53 2.68 1.4 3.646-.001-.002 1.494-2.652 4.444-3.605a5.23 5.23 0 01.215-.065 19.12 19.12 0 00-.443-.928zm3.46-3.145A5.443 5.443 0 0012 6.77c-.444 0-.875.053-1.288.152.082.11 1.108 1.47 2.043 3.184 2.062-.772 2.84-1.956 2.854-1.976zm-2.644 4.977l-.036.012c-3.225 1.123-4.278 3.385-4.29 3.41a5.459 5.459 0 005.493.723 22.689 22.689 0 00-1.167-4.145zm2.088 3.646a5.46 5.46 0 002.342-3.661 7.94 7.94 0 00-3.406-.238 23.593 23.593 0 011.064 3.899zm-1.878-5.834a17.159 17.159 0 01.481 1.074c1.878-.236 3.727.161 3.806.177a5.426 5.426 0 00-1.242-3.41c-.01.014-.887 1.279-3.045 2.159z"/></g></svg>